|A#401v26...|D-501v26...|G-301......|C-503......
|...........|...........|...........|C-506......
|.....v21...|.....v21...|...........|...........
|...........|...........|...........|...........
|.....v17...|.....v17...|...........|...........
|...........|...........|...........|...........
|...........|...........|...........|...........
|...........|...........|...........|...........
|A#401v21...|D-501v21...|...........|...........
|...........|...........|...........|...........
|.....v17...|.....v17...|...........|...........
|...........|...........|...........|...........
|.....v14...|.....v14...|...........|...........
|...........|...........|...........|...........
|...........|...........|...........|...........
|...........|...........|...........|...........
|A#401v21...|D-501v21...|...........|...........
|...........|...........|...........|...........
|.....v17...|.....v17...|...........|...........
|...........|...........|...........|...........
|.....v14...|.....v14...|...........|...........
|...........|...........|...........|...........
|...........|...........|...........|...........
|...........|...........|...........|...........
|A#401v21...|D-501v21...|...........|C-504......
|...........|...........|...........|...........
|.....v17...|.....v17...|...........|...........
|...........|...........|...........|...........
|.....v14...|.....v14...|...........|C-504......
|...........|...........|...........|...........
|...........|...........|...........|...........
|...........|...........|...........|...........
|A#401v26...|D-501v26...|...........|C-504......
|...........|...........|...........|...........
|.....v21...|.....v21...|...........|...........
|...........|...........|...........|...........
|.....v17...|.....v17...|...........|C-504......
|...........|...........|...........|...........
|...........|...........|...........|...........
|...........|...........|...........|...........
|A#401v21...|D-501v21...|...........|C-504......
|...........|...........|...........|...........
|.....v17...|.....v17...|...........|...........
|...........|...........|...........|...........
|.....v14...|.....v14...|...........|C-504......
|...........|...........|...........|...........
|...........|...........|...........|...........
|...........|...........|...........|...........
|A#401v21...|D-501v21...|...........|C-504......
|...........|...........|...........|...........
|.....v17...|.....v17...|...........|...........
|...........|...........|...........|...........
|.....v14...|.....v14...|...........|C-504......
|...........|...........|...........|...........
|...........|...........|...........|...........
|...........|...........|...........|...........
|A#401v21...|D-501v21...|...........|C-504......
|...........|...........|...........|...........
|.....v17...|.....v17...|...........|...........
|...........|...........|...........|...........
|.....v14...|.....v14...|...........|C-504......
|...........|...........|...........|...........
|...........|...........|...........|...........
|...........|...........|...........|...........
|A-401v26...|D-501v26...|...........|C-507......
|...........|...........|...........|...........
|.....v21...|.....v21...|...........|...........
|...........|...........|...........|...........
|.....v17...|.....v17...|...........|...........
|...........|...........|...........|...........
|...........|...........|...........|...........
|...........|...........|...........|...........
|A-401v21...|D-501v21...|...........|A-407......
|...........|...........|...........|...........
|.....v17...|.....v17...|...........|...........
|...........|...........|...........|...........
|.....v14...|.....v14...|...........|...........
|...........|...........|...........|...........
|...........|...........|...........|...........
|...........|...........|...........|...........
|A-401v21...|D-501v21...|...........|C-504......
|...........|...........|...........|...........
|.....v17...|.....v17...|...........|...........
|...........|...........|...........|...........
|.....v14...|.....v14...|...........|...........
|...........|...........|...........|...........
|...........|...........|...........|...........
|...........|...........|...........|...........
|A-401v21...|D-501v21...|A#3........|C-503......
|...........|...........|...........|...........
|.....v17...|.....v17...|...........|...........
|...........|...........|...........|...........
|.....v14...|.....v14...|...........|...........
|...........|...........|...........|...........
|...........|...........|...........|...........
|...........|...........|...........|...........
|A-401v26...|D-501v26...|===........|C-504......
|...........|...........|...........|...........
|.....v21...|.....v21...|...........|...........
|...........|...........|...........|...........
|.....v17...|.....v17...|...........|...........
|...........|...........|...........|...........
|...........|...........|...........|...........
|...........|...........|...........|...........
|A-401v21...|D-501v21...|D-3........|C-503......
|...........|...........|...........|...........
|.....v17...|.....v17...|...........|...........
|...........|...........|...........|...........
|.....v14...|.....v14...|...........|C-504......
|...........|...........|...........|...........
|...........|...........|...........|...........
|...........|...........|...........|...........
|A-401v21...|D-501v21...|F-3........|C-504......
|...........|...........|...........|...........
|.....v17...|.....v17...|...........|...........
|...........|...........|...........|...........
|.....v14...|.....v14...|...........|...........
|...........|...........|...........|...........
|...........|...........|...........|...........
|...........|...........|...........|C-503......
|A-401v21...|D-501v21...|G-3........|C-506......
|...........|...........|...........|...........
|.....v17...|.....v17...|...........|...........
|...........|...........|...........|...........
|.....v14...|.....v14...|...........|...........
|...........|...........|...........|...........
|...........|...........|...........|...........
|...........|...........|...........|...........
|A#401v26...|D-501v26...|...........|C-506......
|...........|...........|...........|...........
|.....v21...|.....v21...|...........|...........
|...........|...........|...........|...........
|.....v17...|.....v17...|...........|...........
|...........|...........|...........|...........
|...........|...........|...........|...........
|...........|...........|...........|...........
|A#401v21...|D-501v21...|D-6........|...........
|...........|...........|...........|...........
|.....v17...|.....v17...|...........|...........
|...........|...........|...........|...........
|.....v14...|.....v14...|...........|...........
|...........|...........|...........|...........
|...........|...........|===........|...........
|...........|...........|...........|...........
|A#401v21...|D-501v21...|D-6........|C-506......
|...........|...........|...........|...........
|.....v17...|.....v17...|...........|...........
|...........|...........|...........|...........
|.....v14...|.....v14...|...........|...........
|...........|...........|...........|...........
|...........|...........|===........|...........
|...........|...........|...........|...........
|A#401v21...|D-501v21...|D-6........|...........
|...........|...........|...........|...........
|.....v17...|.....v17...|...........|...........
|...........|...........|...........|...........
|.....v14...|.....v14...|...........|...........
|...........|...........|...........|...........
|...........|...........|===........|...........
|...........|...........|...........|...........
|A#401v26...|D-501v26...|D-6........|C-506......
|...........|...........|...........|...........
|.....v21...|.....v21...|...........|...........
|...........|...........|...........|...........
|.....v17...|.....v17...|...........|...........
|...........|...........|...........|...........
|...........|...........|...........|...........
|...........|...........|...........|...........
|A#401v21...|D-501v21...|...........|...........
|...........|...........|...........|...........
|.....v17...|.....v17...|...........|...........
|...........|...........|...........|...........
|.....v14...|.....v14...|...........|...........
|...........|...........|...........|...........
|...........|...........|...........|...........
|...........|...........|...........|...........
|A#401v21...|D-501v21...|===........|C-506......
|...........|...........|...........|...........
|.....v17...|.....v17...|...........|...........
|...........|...........|...........|...........
|.....v14...|.....v14...|...........|...........
|...........|...........|...........|...........
|...........|...........|...........|...........
|...........|...........|...........|...........
|A#401v21...|D-501v21...|D-6........|...........
|...........|...........|...........|...........
|.....v17...|.....v17...|...........|...........
|...........|...........|...........|...........
|.....v14...|.....v14...|...........|...........
|...........|...........|...........|...........
|...........|...........|...........|...........
|...........|...........|...........|...........
|A-401v26...|D-501v26...|C-6........|C-506......
|...........|...........|...........|...........
|.....v21...|.....v21...|...........|...........
|...........|...........|...........|...........
|.....v17...|.....v17...|...........|...........
|...........|...........|...........|...........
|...........|...........|...........|...........
|...........|...........|...........|...........
|A-401v21...|D-501v21...|...........|...........
|...........|...........|...........|...........
|.....v17...|.....v17...|...........|...........
|...........|...........|...........|...........
|.....v14...|.....v14...|...........|...........
|...........|...........|...........|...........
|...........|...........|...........|...........
|...........|...........|...........|...........
|A-401v21...|D-501v21...|A#5........|C-506......
|...........|...........|...........|...........
|.....v17...|.....v17...|...........|...........
|...........|...........|...........|...........
|.....v14...|.....v14...|...........|...........
|...........|...........|...........|...........
|...........|...........|...........|...........
|...........|...........|...........|...........
|A-401v21...|D-501v21...|F-5........|...........
|...........|...........|...........|...........
|.....v17...|.....v17...|...........|...........
|...........|...........|...........|...........
|.....v14...|.....v14...|...........|...........
|...........|...........|...........|...........
|...........|...........|...........|...........
|...........|...........|...........|...........
|A-401v26...|D-501v26...|...........|C-506......
|...........|...........|...........|...........
|.....v21...|.....v21...|...........|...........
|...........|...........|...........|...........
|.....v17...|.....v17...|...........|...........
|...........|...........|...........|...........
|...........|...........|...........|...........
|...........|...........|...........|C-503......
|A-401v21...|D-501v21...|F-3........|C-505......
|...........|...........|...........|...........
|.....v17...|.....v17...|...........|...........
|...........|...........|...........|...........
|.....v14...|.....v14...|...........|...........
|...........|...........|...........|...........
|...........|...........|...........|...........
|...........|...........|...........|...........
|A-401v21...|D-501v21...|D-3........|C-506......
|...........|...........|...........|...........
|.....v17...|.....v17...|...........|...........
|...........|...........|...........|...........
|.....v14...|.....v14...|...........|...........
|...........|...........|...........|...........
|...........|...........|...........|...........
|...........|...........|...........|C-503......
|A-401v21...|D-501v21...|A#5........|C-505......
|...........|...........|...........|...........
|.....v17...|.....v17...|...........|...........
|...........|...........|...........|...........
|.....v14...|.....v14...|...........|...........
|...........|...........|...........|...........
|...........|...........|...........|...........
|...........|...........|...........|...........
|A#401v26...|D-501v26...|D-6........|C-506......
|...........|...........|...........|...........
|.....v21...|.....v21...|...........|...........
|...........|...........|...........|...........
|.....v17...|.....v17...|...........|...........
|...........|...........|...........|...........
|...........|...........|...........|...........
|...........|...........|...........|...........
|A#401v21...|D-501v21...|===........|...........
|...........|...........|...........|...........
|.....v17...|.....v17...|...........|...........
|...........|...........|...........|...........
|.....v14...|.....v14...|...........|...........
|...........|...........|...........|...........
|...........|...........|...........|...........
|...........|...........|...........|...........
|A#401v21...|D-501v21...|D-6........|C-506......
|...........|...........|...........|...........
|.....v17...|.....v17...|...........|...........
|...........|...........|...........|...........
|.....v14...|.....v14...|...........|...........
|...........|...........|...........|...........
|...........|...........|...........|...........
|...........|...........|...........|...........
|A#401v21...|D-501v21...|===........|...........
|...........|...........|...........|...........
|.....v17...|.....v17...|...........|...........
|...........|...........|...........|...........
|.....v14...|.....v14...|...........|...........
|...........|...........|...........|...........
|...........|...........|...........|...........
|...........|...........|...........|...........
|A#401v26...|D-501v26...|C-6........|C-506......
|...........|...........|...........|...........
|.....v21...|.....v21...|...........|...........
|...........|...........|...........|...........
|.....v17...|.....v17...|...........|...........
|...........|...........|...........|...........
|...........|...........|...........|...........
|...........|...........|...........|...........
|A#401v21...|D-501v21...|A#5........|...........
|...........|...........|...........|...........
|.....v17...|.....v17...|...........|...........
|...........|...........|...........|...........
|.....v14...|.....v14...|...........|...........
|...........|...........|...........|...........
|...........|...........|...........|...........
|...........|...........|...........|...........
|A#401v21...|D-501v21...|C-6........|C-506......
|...........|...........|...........|...........
|.....v17...|.....v17...|...........|...........
|...........|...........|...........|...........
|.....v14...|.....v14...|...........|...........
|...........|...........|...........|...........
|...........|...........|...........|...........
|...........|...........|...........|...........
|A#401v21...|D-501v21...|===........|...........
|...........|...........|...........|...........
|.....v17...|.....v17...|...........|...........
|...........|...........|...........|...........
|.....v14...|.....v14...|...........|...........
|...........|...........|...........|...........
|...........|...........|...........|...........
|...........|...........|...........|...........
|A-401v39...|D-501v39...|D-3........|C-506......
|...........|...........|...........|...........
|.....v32...|.....v32...|...........|...........
|...........|...........|...........|...........
|.....v26...|.....v26...|...........|...........
|...........|...........|...........|...........
|...........|...........|...........|...........
|...........|...........|...........|...........
|A-401v21...|D-501v21...|...........|...........
|...........|...........|...........|...........
|.....v17...|.....v17...|...........|...........
|...........|...........|...........|...........
|.....v14...|.....v14...|...........|...........
|...........|...........|...........|...........
|...........|...........|...........|...........
|...........|...........|...........|...........
|A-401v21...|D-501v21...|...........|C-506......
|...........|...........|...........|...........
|.....v17...|.....v17...|...........|...........
|...........|...........|...........|...........
|.....v14...|.....v14...|...........|...........
|...........|...........|...........|...........
|...........|...........|...........|...........
|...........|...........|...........|C-503......
|A-401v32...|D-501v32...|F-3........|C-505......
|...........|...........|...........|...........
|.....v26...|.....v26...|...........|...........
|...........|...........|...........|...........
|.....v21...|.....v21...|...........|...........
|...........|...........|...........|...........
|...........|...........|...........|...........
|...........|...........|...........|...........
|A-401v26...|D-501v26...|...........|C-506......
|...........|...........|...........|...........
|.....v21...|.....v21...|...........|...........
|...........|...........|...........|...........
|.....v17...|.....v17...|...........|...........
|...........|...........|...........|...........
|...........|...........|...........|...........
|...........|...........|...........|C-503......
|A-401v32...|D-501v32...|C-3........|C-505......
|...........|...........|...........|...........
|.....v26...|.....v26...|...........|...........
|...........|...........|...........|...........
|.....v21...|.....v21...|...........|...........
|...........|...........|...........|...........
|...........|...........|...........|...........
|...........|...........|...........|...........
|A-401v21...|D-501v21...|...........|C-506......
|...........|...........|...........|...........
|.....v17...|.....v17...|...........|...........
|...........|...........|...........|...........
|.....v14...|.....v14...|...........|...........
|...........|...........|...........|...........
|...........|...........|...........|...........
|...........|...........|...........|C-503......
|A-401v21...|D-501v21...|D-3........|C-505......
|...........|...........|...........|...........
|.....v17...|.....v17...|...........|...........
|...........|...........|...........|...........
|.....v14...|.....v14...|...........|...........
|...........|...........|...........|...........
|...........|...........|...........|...........
|...........|...........|...........|C-503......
|D#401v33...|A#401v26...|D#3........|C-505......
|...........|...........|...........|...........
|.....v27...|.....v21...|...........|...........
|...........|...........|...........|...........
|.....v21...|.....v17...|...........|...........
|...........|...........|...........|...........
|...........|...........|...........|...........
|...........|...........|...........|...........
|D#401v27...|A#401v21...|A#5........|...........
|...........|...........|...........|...........
|.....v21...|.....v17...|...........|...........
|...........|...........|...........|...........
|.....v18...|.....v14...|...........|...........
|...........|...........|...........|...........
|...........|...........|...........|...........
|...........|...........|...........|...........
|D#401v27...|A#401v21...|D#6........|C-506......
|...........|...........|...........|...........
|.....v21...|.....v17...|...........|...........
|...........|...........|...........|...........
|.....v18...|.....v14...|...........|...........
|...........|...........|...........|...........
|...........|...........|...........|...........
|...........|...........|...........|...........
|D#401v27...|A#401v21...|===........|...........
|...........|...........|...........|...........
|.....v21...|.....v17...|...........|...........
|...........|...........|...........|...........
|.....v18...|.....v14...|...........|...........
|...........|...........|...........|...........
|...........|...........|...........|...........
|...........|...........|...........|...........
|D#401v33...|A#401v26...|D#6........|C-506......
|...........|...........|...........|...........
|.....v27...|.....v21...|...........|...........
|...........|...........|...........|...........
|.....v21...|.....v17...|...........|...........
|...........|...........|...........|...........
|...........|...........|...........|...........
|...........|...........|...........|...........
|D#401v27...|A#401v21...|===........|...........
|...........|...........|...........|...........
|.....v21...|.....v17...|...........|...........
|...........|...........|...........|...........
|.....v18...|.....v14...|...........|...........
|...........|...........|...........|...........
|...........|...........|...........|...........
|...........|...........|...........|...........
|D#401v27...|A#401v21...|F-6........|C-506......
|...........|...........|...........|...........
|.....v21...|.....v17...|...........|...........
|...........|...........|...........|...........
|.....v18...|.....v14...|...........|...........
|...........|...........|...........|...........
|...........|...........|...........|...........
|...........|...........|...........|...........
|D#401v27...|A#401v21...|===........|...........
|...........|...........|...........|...........
|.....v21...|.....v17...|...........|...........
|...........|...........|...........|...........
|.....v18...|.....v14...|...........|...........
|...........|...........|...........|...........
|...........|...........|...........|...........
|...........|...........|...........|C-503......
|A#301v33...|F-401v26...|D-6........|C-505......
|...........|...........|...........|...........
|.....v27...|.....v21...|...........|...........
|...........|...........|...........|...........
|.....v21...|.....v17...|...........|...........
|...........|...........|...........|...........
|...........|...........|...........|...........
|...........|...........|...........|...........
|A#301v27...|F-401v21...|C-6........|...........
|...........|...........|...........|...........
|.....v21...|.....v17...|...........|...........
|...........|...........|...........|...........
|.....v18...|.....v14...|...........|...........
|...........|...........|...........|...........
|...........|...........|...........|...........
|...........|...........|...........|...........
|A#301v27...|F-401v21...|===........|C-506......
|...........|...........|...........|...........
|.....v21...|.....v17...|...........|...........
|...........|...........|...........|...........
|.....v18...|.....v14...|...........|...........
|...........|...........|...........|...........
|...........|...........|...........|...........
|...........|...........|...........|...........
|A#301v27...|F-401v21...|A#5........|...........
|...........|...........|...........|...........
|.....v21...|.....v17...|...........|...........
|...........|...........|...........|...........
|.....v18...|.....v14...|...........|...........
|...........|...........|...........|...........
|...........|...........|...........|...........
|...........|...........|...........|...........
|A#301v33...|F-401v26...|...........|C-506......
|...........|...........|...........|...........
|.....v27...|.....v21...|...........|...........
|...........|...........|...........|...........
|.....v21...|.....v17...|...........|...........
|...........|...........|...........|...........
|...........|...........|...........|...........
|...........|...........|...........|...........
|A#301v27...|F-401v21...|===........|...........
|...........|...........|...........|...........
|.....v21...|.....v17...|...........|...........
|...........|...........|...........|...........
|.....v18...|.....v14...|...........|...........
|...........|...........|...........|...........
|...........|...........|...........|...........
|...........|...........|...........|...........
|A#301v27...|F-401v21...|...........|C-506......
|...........|...........|...........|...........
|.....v21...|.....v17...|...........|...........
|...........|...........|...........|...........
|.....v18...|.....v14...|...........|...........
|...........|...........|...........|...........
|...........|...........|...........|...........
|...........|...........|...........|...........
|A#301v27...|F-401v21...|A#5........|...........
|...........|...........|...........|...........
|.....v21...|.....v17...|...........|...........
|...........|...........|...........|...........
|.....v18...|.....v14...|...........|...........
|...........|...........|...........|...........
|...........|...........|...........|...........
|...........|...........|...........|C-503......
|A#3..v40...|F-401v32...|D-6........|C-505......
|...........|...........|...........|...........
|...........|.....v26...|...........|...........
|...........|...........|...........|...........
|...........|.....v21...|...........|...........
|...........|...........|...........|...........
|.....v36...|...........|...........|...........
|...........|...........|...........|...........
|...........|F-401v21...|===........|...........
|...........|...........|...........|...........
|...........|.....v17...|...........|...........
|...........|...........|...........|...........
|.....v30...|.....v14...|...........|...........
|...........|...........|...........|...........
|...........|...........|...........|...........
|...........|...........|...........|...........
|...........|F-401v21...|D-6........|C-506......
|...........|...........|...........|...........
|...........|.....v17...|...........|...........
|...........|...........|...........|...........
|...........|.....v14...|...........|...........
|...........|...........|...........|...........
|...........|...........|...........|...........
|...........|...........|...........|C-503......
|C-4..v40...|G-401v32...|C-6........|C-505......
|...........|...........|...........|...........
|...........|.....v26...|...........|...........
|...........|...........|...........|...........
|...........|.....v21...|...........|...........
|...........|...........|...........|...........
|.....v36...|...........|...........|...........
|...........|...........|...........|...........
|...........|G-401v21...|===........|C-506......
|...........|...........|...........|...........
|...........|.....v17...|...........|...........
|...........|...........|...........|...........
|.....v30...|.....v14...|...........|...........
|...........|...........|...........|...........
|...........|...........|...........|...........
|...........|...........|...........|...........
|...........|G-401v21...|A#5........|...........
|...........|...........|...........|...........
|...........|.....v17...|...........|...........
|...........|...........|...........|...........
|...........|.....v14...|...........|...........
|...........|...........|...........|...........
|...........|...........|...........|...........
|...........|...........|...........|C-503......
|D-4..v40...|A-401v32...|D-6........|C-505......
|...........|...........|...........|...........
|...........|.....v26...|...........|...........
|...........|...........|...........|...........
|...........|.....v21...|...........|...........
|...........|...........|...........|...........
|.....v36...|...........|...........|...........
|...........|...........|...........|...........
|...........|A-401v21...|...........|...........
|...........|...........|...........|...........
|...........|.....v17...|...........|...........
|...........|...........|...........|...........
|.....v30...|.....v14...|...........|...........
|...........|...........|...........|...........
|...........|...........|...........|...........
|...........|...........|...........|...........
|D-401v21...|A-401v21...|...........|...........
|...........|...........|...........|...........
|.....v17...|.....v17...|...........|...........
|...........|...........|...........|...........
|.....v14...|.....v14...|...........|...........
|...........|...........|...........|...........
|...........|...........|...........|...........
|...........|...........|...........|...........
|D-401v21...|A-401v21...|........F01|...........
|...........|...........|...........|...........
|.....v17...|.....v17...|...........|...........
|...........|...........|...........|...........
|.....v14...|.....v14...|........E02|...........
|...........|...........|...........|...........
|...........|...........|...........|...........
|...........|...........|...........|...........
|D-401v21...|A-401v21...|........F02|...........
|...........|...........|...........|...........
|.....v17...|.....v17...|...........|...........
|...........|...........|...........|...........
|.....v14...|.....v14...|........E02|...........
|...........|...........|...........|...........
|...........|...........|...........|...........
|...........|...........|...........|...........
|D-401v21...|A-401v21...|........F02|...........
|...........|...........|...........|...........
|.....v17...|.....v17...|...........|...........
|...........|...........|...........|...........
|.....v14...|.....v14...|........E02|...........
|...........|...........|...........|...........
|...........|...........|...........|...........
|...........|...........|...........|...........
|D-401v21...|A-401v21...|........F02|C-504......
|...........|...........|...........|...........
|.....v17...|.....v17...|...........|...........
|...........|...........|...........|...........
|.....v14...|.....v14...|........E02|...........
|...........|...........|...........|...........
|...........|...........|...........|...........
|...........|...........|...........|...........
|D-401v21...|A-401v21...|D-3........|C-503......
|...........|...........|...........|...........
|.....v17...|.....v17...|...........|...........
|...........|...........|...........|...........
|.....v14...|.....v14...|...........|C-504......
|...........|...........|...........|...........
|...........|...........|...........|...........
|...........|...........|...........|...........
|D-401v21...|A-401v21...|F-3........|C-504......
|...........|...........|...........|...........
|.....v17...|.....v17...|...........|...........
|...........|...........|...........|...........
|.....v14...|.....v14...|...........|...........
|...........|...........|...........|...........
|...........|...........|...........|...........
|...........|...........|...........|C-503......
|D-401v21...|A-401v21...|G-3........|C-506......
|...........|...........|...........|...........
|.....v17...|.....v17...|...........|...........
|...........|...........|...........|...........
|.....v14...|.....v14...|...........|...........
|...........|...........|...........|...........
|...........|...........|...........|...........
|...........|...........|...........|C-503......
|A#401v26...|D-501v26...|...........|C-506......
|...........|...........|...........|...........
|.....v21...|.....v21...|...........|...........
|...........|...........|...........|...........
|A#401v26...|D-501v26...|...........|...........
|...........|...........|...........|...........
|.....v21...|.....v21...|...........|...........
|...........|...........|...........|...........
|A#401v21...|D-501v21...|...........|...........
|...........|...........|...........|...........
|.....v17...|.....v17...|...........|...........
|...........|...........|...........|...........
|.....v14...|.....v14...|...........|...........
|...........|...........|...........|...........
|...........|...........|...........|...........
|...........|...........|...........|C-504......
|A#401v21...|D-501v21...|D-601......|C-506......
|...........|...........|...........|...........
|.....v17...|.....v17...|...........|...........
|...........|...........|...........|...........
|A#401v21...|D-501v21...|...........|...........
|...........|...........|...........|...........
|.....v17...|.....v17...|...........|...........
|...........|...........|...........|...........
|A#401v21...|D-501v21...|D-601......|...........
|...........|...........|...........|...........
|.....v17...|.....v17...|...........|...........
|...........|...........|...........|...........
|.....v14...|.....v14...|...........|...........
|...........|...........|...........|...........
|...........|...........|...........|...........
|...........|...........|...........|...........
|A#401v26...|D-501v26...|D-601......|C-506......
|...........|...........|...........|...........
|.....v21...|.....v21...|...........|...........
|...........|...........|...........|...........
|A#401v26...|D-501v26...|...........|...........
|...........|...........|...........|...........
|.....v21...|.....v21...|...........|...........
|...........|...........|...........|C-503......
|A#401v21...|D-501v21...|D-601......|C-504......
|...........|...........|...........|...........
|.....v17...|.....v17...|...........|...........
|...........|...........|...........|...........
|.....v14...|.....v14...|...........|...........
|...........|...........|...........|...........
|...........|...........|...........|...........
|...........|...........|...........|C-507......
|A#401v21...|D-501v21...|===........|C-506......
|...........|...........|...........|...........
|.....v17...|.....v17...|...........|...........
|...........|...........|...........|...........
|A#401v21...|D-501v21...|...........|...........
|...........|...........|...........|...........
|.....v17...|.....v17...|...........|...........
|...........|...........|...........|C-503......
|A#401v21...|D-501v21...|D-601......|C-504......
|...........|...........|...........|...........
|.....v17...|.....v17...|...........|...........
|...........|...........|...........|...........
|.....v14...|.....v14...|...........|...........
|...........|...........|...........|...........
|...........|...........|...........|...........
|...........|...........|...........|...........
|A-401v26...|D-501v26...|C-601......|C-506......
|...........|...........|...........|...........
|.....v21...|.....v21...|...........|...........
|...........|...........|...........|...........
|A-401v26...|D-501v26...|...........|...........
|...........|...........|...........|...........
|.....v21...|.....v21...|...........|...........
|...........|...........|...........|...........
|A-401v21...|D-501v21...|...........|...........
|...........|...........|...........|...........
|.....v17...|.....v17...|...........|...........
|...........|...........|...........|...........
|.....v14...|.....v14...|...........|...........
|...........|...........|...........|...........
|...........|...........|...........|...........
|...........|...........|...........|C-504......
|A-401v21...|D-501v21...|A#501......|C-506......
|...........|...........|...........|...........
|.....v17...|.....v17...|...........|...........
|...........|...........|...........|...........
|A-401v21...|D-501v21...|...........|...........
|...........|...........|...........|...........
|.....v17...|.....v17...|...........|...........
|...........|...........|...........|...........
|A-401v21...|D-501v21...|F-501......|...........
|...........|...........|...........|...........
|.....v17...|.....v17...|...........|...........
|...........|...........|...........|...........
|.....v14...|.....v14...|...........|...........
|...........|...........|...........|...........
|...........|...........|...........|...........
|...........|...........|...........|...........
|A-401v26...|D-501v26...|...........|C-506......
|...........|...........|...........|...........
|.....v21...|.....v21...|...........|...........
|...........|...........|...........|...........
|A-401v26...|D-501v26...|...........|...........
|...........|...........|...........|...........
|.....v21...|.....v21...|...........|...........
|...........|...........|...........|C-503......
|A-401v21...|D-501v21...|F-301......|C-504......
|...........|...........|...........|...........
|.....v17...|.....v17...|...........|...........
|...........|...........|...........|...........
|.....v14...|.....v14...|...........|...........
|...........|...........|...........|...........
|...........|...........|...........|C-507......
|...........|...........|...........|...........
|A-401v21...|D-501v21...|D-301......|C-506......
|...........|...........|...........|...........
|.....v17...|.....v17...|...........|...........
|...........|...........|...........|...........
|A-401v21...|D-501v21...|...........|...........
|...........|...........|...........|...........
|.....v17...|.....v17...|...........|...........
|...........|...........|...........|C-503......
|A-401v21...|D-501v21...|G-201......|C-504......
|...........|...........|...........|...........
|.....v17...|.....v17...|...........|...........
|...........|...........|...........|...........
|.....v14...|.....v14...|...........|...........
|...........|...........|...........|...........
|...........|...........|...........|...........
|...........|...........|...........|...........
|A#401v26...|D-501v26...|D-601......|C-506......
|...........|...........|...........|...........
|.....v21...|.....v21...|...........|...........
|...........|...........|...........|...........
|A#401v26...|D-501v26...|...........|...........
|...........|...........|...........|...........
|.....v21...|.....v21...|===........|...........
|...........|...........|...........|...........
|A#401v21...|D-501v21...|D-601......|...........
|...........|...........|...........|...........
|.....v17...|.....v17...|...........|...........
|...........|...........|...........|...........
|.....v14...|.....v14...|...........|...........
|...........|...........|...........|...........
|...........|...........|...........|...........
|...........|...........|...........|C-504......
|A#401v21...|D-501v21...|...........|C-506......
|...........|...........|...........|...........
|.....v17...|.....v17...|...........|...........
|...........|...........|...........|...........
|A#401v21...|D-501v21...|...........|...........
|...........|...........|...........|...........
|.....v17...|.....v17...|...........|...........
|...........|...........|...........|...........
|A#401v21...|D-501v21...|===........|...........
|...........|...........|...........|...........
|.....v17...|.....v17...|...........|...........
|...........|...........|...........|...........
|.....v14...|.....v14...|...........|...........
|...........|...........|...........|...........
|...........|...........|...........|...........
|...........|...........|...........|...........
|A#401v26...|D-501v26...|C-601......|C-506......
|...........|...........|...........|...........
|.....v21...|.....v21...|...........|...........
|...........|...........|...........|...........
|A#401v26...|D-501v26...|...........|...........
|...........|...........|...........|...........
|.....v21...|.....v21...|...........|...........
|...........|...........|...........|C-503......
|A#401v21...|D-501v21...|...........|C-504......
|...........|...........|...........|...........
|.....v17...|.....v17...|...........|...........
|...........|...........|...........|...........
|.....v14...|.....v14...|...........|...........
|...........|...........|...........|...........
|...........|...........|...........|...........
|...........|...........|...........|C-507......
|A#401v21...|D-501v21...|A#501......|C-506......
|...........|...........|...........|...........
|.....v17...|.....v17...|...........|...........
|...........|...........|...........|...........
|A#401v21...|D-501v21...|...........|...........
|...........|...........|...........|...........
|.....v17...|.....v17...|...........|...........
|...........|...........|...........|C-503......
|A#401v21...|D-501v21...|C-601......|C-504......
|...........|...........|...........|...........
|.....v17...|.....v17...|...........|...........
|...........|...........|...........|...........
|.....v14...|.....v14...|...........|...........
|...........|...........|...........|...........
|...........|...........|...........|...........
|...........|...........|...........|C-503......
|A-401v39...|D-501v39...|...........|C-506......
|...........|...........|...........|...........
|.....v32...|.....v32...|...........|...........
|...........|...........|...........|...........
|A-401v39...|D-501v39...|...........|...........
|...........|...........|...........|...........
|.....v32...|.....v32...|...........|...........
|...........|...........|...........|...........
|A-401v32...|D-501v32...|D-301......|...........
|...........|...........|...........|...........
|.....v26...|.....v26...|...........|...........
|...........|...........|...........|...........
|.....v21...|.....v21...|...........|...........
|...........|...........|...........|...........
|...........|...........|...........|...........
|...........|...........|...........|C-504......
|A-401v32...|D-501v32...|...........|C-506......
|...........|...........|...........|...........
|.....v26...|.....v26...|...........|...........
|...........|...........|...........|...........
|A-401v32...|D-501v32...|...........|...........
|...........|...........|...........|...........
|.....v26...|.....v26...|...........|...........
|...........|...........|...........|C-503......
|A-401v32...|D-501v32...|F-301......|C-505......
|...........|...........|...........|...........
|.....v26...|.....v26...|...........|...........
|...........|...........|...........|...........
|.....v21...|.....v21...|...........|...........
|...........|...........|...........|...........
|...........|...........|...........|...........
|...........|...........|...........|...........
|A-401v39...|D-501v39...|...........|C-506......
|...........|...........|...........|...........
|.....v32...|.....v32...|...........|...........
|...........|...........|...........|...........
|A-401v39...|D-501v39...|...........|...........
|...........|...........|...........|...........
|.....v32...|.....v32...|...........|...........
|...........|...........|...........|C-503......
|A-401v32...|D-501v32...|C-301......|C-505......
|...........|...........|...........|...........
|.....v26...|.....v26...|...........|...........
|...........|...........|...........|...........
|.....v21...|.....v21...|...........|...........
|...........|...........|...........|...........
|...........|...........|...........|...........
|...........|...........|...........|...........
|A-401v32...|D-501v32...|...........|C-506......
|...........|...........|...........|...........
|.....v26...|.....v26...|...........|...........
|...........|...........|...........|...........
|A-401v32...|D-501v32...|...........|...........
|...........|...........|...........|...........
|.....v26...|.....v26...|...........|...........
|...........|...........|...........|C-503......
|A-401v32...|D-501v32...|D-301......|C-505......
|...........|...........|...........|...........
|.....v26...|.....v26...|...........|...........
|...........|...........|...........|...........
|.....v21...|.....v21...|...........|...........
|...........|...........|...........|...........
|...........|...........|...........|...........
|...........|...........|...........|C-503......
|D#401v33...|A#401v26...|D#301......|C-505......
|...........|...........|...........|...........
|.....v27...|.....v21...|...........|...........
|...........|...........|...........|...........
|D#401v33...|A#401v26...|...........|...........
|...........|...........|...........|...........
|.....v27...|.....v21...|...........|...........
|...........|...........|...........|...........
|D#401v27...|A#401v21...|A#501......|...........
|...........|...........|...........|...........
|.....v21...|.....v17...|...........|...........
|...........|...........|...........|...........
|.....v18...|.....v14...|...........|...........
|...........|...........|...........|...........
|...........|...........|...........|...........
|...........|...........|...........|C-503......
|D#401v27...|A#401v21...|D#601......|C-506......
|...........|...........|...........|...........
|.....v21...|.....v17...|...........|...........
|...........|...........|...........|...........
|D#401v27...|A#401v21...|...........|...........
|...........|...........|...........|...........
|.....v21...|.....v17...|===........|...........
|...........|...........|...........|...........
|D#401v27...|A#401v21...|D#601......|...........
|...........|...........|...........|...........
|.....v21...|.....v17...|...........|...........
|...........|...........|...........|...........
|.....v18...|.....v14...|...........|...........
|...........|...........|...........|...........
|...........|...........|===........|...........
|...........|...........|...........|...........
|D#401v33...|A#401v26...|D#601......|C-506......
|...........|...........|...........|...........
|.....v27...|.....v21...|...........|...........
|...........|...........|...........|...........
|D#401v33...|A#401v26...|...........|...........
|...........|...........|...........|...........
|.....v27...|.....v21...|...........|...........
|...........|...........|...........|...........
|D#401v27...|A#401v21...|===........|...........
|...........|...........|...........|...........
|.....v21...|.....v17...|...........|...........
|...........|...........|...........|...........
|.....v18...|.....v14...|...........|...........
|...........|...........|...........|...........
|...........|...........|...........|...........
|...........|...........|...........|C-504......
|D#401v27...|A#401v21...|...........|C-506......
|...........|...........|...........|...........
|.....v21...|.....v17...|...........|...........
|...........|...........|...........|...........
|D#401v27...|A#401v21...|...........|C-503......
|...........|...........|...........|...........
|.....v21...|.....v17...|F-601......|C-505......
|...........|...........|...........|...........
|D#401v27...|A#401v21...|...........|...........
|...........|...........|...........|...........
|.....v21...|.....v17...|...........|...........
|...........|...........|...........|...........
|.....v18...|.....v14...|...........|...........
|...........|...........|...........|...........
|...........|...........|===........|...........
|...........|...........|...........|C-503......
|A#301v33...|F-401v26...|D-601......|C-505......
|...........|...........|...........|...........
|.....v27...|.....v21...|...........|...........
|...........|...........|...........|...........
|A#301v33...|F-401v26...|...........|...........
|...........|...........|...........|...........
|.....v27...|.....v21...|...........|...........
|...........|...........|...........|...........
|A#301v27...|F-401v21...|...........|...........
|...........|...........|...........|...........
|.....v21...|.....v17...|...........|...........
|...........|...........|...........|...........
|.....v18...|.....v14...|...........|...........
|...........|...........|...........|...........
|...........|...........|...........|...........
|...........|...........|...........|...........
|A#301v27...|F-601v21...|C-601......|C-506......
|...........|...........|...........|...........
|.....v21...|.....v17...|...........|...........
|...........|...........|...........|...........
|A#301v27...|.....v14...|...........|...........
|...........|...........|...........|...........
|.....v21...|...........|...........|...........
|...........|...........|...........|...........
|F-401v27...|A#601v21...|A#501......|C-504......
|...........|...........|...........|...........
|.....v21...|.....v17...|...........|...........
|...........|...........|...........|...........
|.....v18...|.....v14...|...........|...........
|...........|...........|...........|...........
|...........|...........|...........|...........
|...........|...........|...........|...........
|A#301v33...|...........|...........|C-506......
|...........|...........|...........|...........
|.....v27...|...........|...........|...........
|...........|...........|...........|...........
|A#301v33...|...........|...........|C-504......
|...........|...........|...........|...........
|.....v27...|...........|...........|...........
|...........|...........|...........|...........
|A#301v27...|F-401v21...|===........|C-507......
|...........|...........|...........|...........
|.....v21...|.....v17...|...........|...........
|...........|...........|...........|...........
|.....v18...|.....v14...|...........|C-507......
|...........|...........|...........|...........
|...........|...........|...........|...........
|...........|...........|...........|...........
|A#301v27...|F-401v21...|...........|C-506......
|...........|...........|...........|...........
|.....v21...|.....v17...|...........|...........
|...........|...........|...........|...........
|A#301v27...|F-401v21...|...........|A-407......
|...........|...........|...........|...........
|.....v21...|.....v17...|...........|...........
|...........|...........|...........|...........
|A#301v27...|F-601v21...|A#501......|C-504......
|...........|...........|...........|...........
|.....v21...|.....v17...|...........|...........
|...........|...........|...........|...........
|.....v18...|.....v14...|...........|C-504......
|...........|...........|...........|...........
|...........|...........|...........|...........
|...........|...........|...........|...........
|A#301v40...|A#601v32...|D-601......|C-506......
|...........|...........|...........|...........
|...........|.....v26...|...........|...........
|...........|...........|...........|...........
|...........|.....v17...|...........|...........
|...........|...........|...........|...........
|.....v36...|.....v14...|...........|...........
|...........|...........|...........|...........
|...........|F-401v21...|===........|C-504......
|...........|...........|...........|...........
|...........|.....v17...|...........|...........
|...........|...........|...........|...........
|.....v30...|.....v14...|...........|...........
|...........|...........|...........|...........
|...........|...........|...........|...........
|...........|...........|...........|C-504......
|...........|A#601v32...|D-601......|C-506......
|...........|...........|...........|...........
|...........|.....v26...|...........|...........
|...........|...........|...........|...........
|...........|.....v17...|...........|...........
|...........|...........|...........|...........
|...........|.....v14...|...........|...........
|...........|...........|...........|C-504......
|C-401v40...|A#601v32...|C-601......|C-506......
|...........|...........|...........|...........
|...........|.....v26...|...........|...........
|...........|...........|...........|...........
|...........|.....v17...|...........|...........
|...........|...........|...........|...........
|.....v36...|.....v14...|...........|...........
|...........|...........|...........|...........
|...........|G-401v21...|===........|C-506......
|...........|...........|...........|...........
|...........|.....v17...|...........|...........
|...........|...........|...........|...........
|.....v30...|G-401v21...|...........|...........
|...........|...........|...........|...........
|...........|.....v17...|...........|...........
|...........|...........|...........|C-503......
|...........|A#601v32...|A#501......|C-506......
|...........|...........|...........|...........
|...........|.....v26...|...........|...........
|...........|...........|...........|...........
|...........|.....v17...|...........|...........
|...........|...........|...........|...........
|...........|.....v14...|...........|...........
|...........|...........|...........|C-504......
|D-401v40...|A#601v32...|D-601......|C-506......
|...........|...........|...........|...........
|...........|.....v26...|...........|...........
|...........|...........|...........|...........
|...........|.....v17...|...........|...........
|...........|...........|...........|...........
|.....v36...|.....v14...|...........|...........
|...........|...........|...........|...........
|...........|A-601v32...|...........|...........
|...........|...........|...........|...........
|...........|.....v26...|...........|...........
|...........|...........|...........|...........
|.....v30...|.....v17...|...........|...........
|...........|...........|...........|...........
|...........|.....v14...|...........|...........
|...........|...........|...........|...........
|D-401v32...|........F01|...........|...........
|...........|...........|...........|...........
|.....v26...|...........|...........|...........
|...........|...........|...........|...........
|D-401v32...|........E02|...........|...........
|...........|...........|...........|...........
|.....v26...|...........|...........|...........
|...........|...........|...........|C-504......
|D-401v32...|........F02|........F01|C-506......
|...........|...........|...........|...........
|.....v26...|...........|...........|...........
|...........|...........|...........|...........
|.....v21...|........E02|........E02|...........
|...........|...........|...........|...........
|...........|...........|...........|...........
|...........|...........|...........|C-504......
|D-401v32...|........F02|........F02|C-506......
|...........|...........|...........|...........
|.....v26...|...........|...........|...........
|...........|...........|...........|...........
|D-401v32...|........E02|........E02|...........
|...........|...........|...........|...........
|.....v26...|...........|...........|...........
|...........|...........|...........|C-507......
|D-401v32...|........F02|........F02|C-506......
|...........|...........|...........|...........
|.....v26...|...........|...........|...........
|...........|...........|...........|...........
|.....v21...|........E02|........E02|...........
|...........|...........|...........|...........
|...........|...........|...........|...........
|...........|...........|...........|C-504......
|D-401v32...|A-401v21...|........F02|C-506......
|...........|...........|...........|...........
|.....v26...|.....v17...|...........|...........
|...........|...........|...........|...........
|D-401v32...|A-401v21...|........E02|...........
|...........|...........|...........|...........
|.....v26...|.....v17...|...........|...........
|...........|...........|...........|C-503......
|D-401v32...|A-401v21...|D-601......|C-506......
|...........|...........|...........|...........
|...........|...........|...........|...........
|...........|...........|...........|...........
|...........|...........|...........|...........
|...........|...........|...........|...........
|...........|...........|...........|...........
|...........|...........|...........|C-503......
|D-401v32...|A-401v21...|F-601......|C-506......
|...........|...........|...........|...........
|.....v26...|.....v17...|...........|...........
|...........|...........|...........|...........
|D-401v32...|A-401v21...|...........|...........
|...........|...........|...........|...........
|.....v26...|.....v17...|...........|...........
|...........|...........|...........|C-503......
|D-401v32...|A-401v21...|G-601......|C-506......
|...........|...........|...........|...........
|...........|...........|...........|...........
|...........|...........|...........|...........
|...........|...........|...........|...........
|...........|...........|...........|...........
|...........|...........|...........|...........
|...........|...........|...........|...........
|F-501v32...|D#301v64...|...........|C-503......
|...........|...........|...........|...........
|.....v28...|...........|...........|...........
|...........|...........|...........|...........
|.....v25...|...........|...........|...........
|...........|...........|...........|...........
|...........|...........|...........|...........
|...........|...........|...........|...........
|A#401v28...|...........|........F01|C-506......
|...........|...........|...........|...........
|.....v24...|...........|...........|...........
|...........|...........|...........|...........
|.....v20...|...........|........E02|...........
|...........|...........|...........|...........
|...........|...........|...........|...........
|...........|...........|...........|...........
|D#501v28...|D-501v28...|........F02|C-504......
|...........|...........|...........|...........
|.....v24...|.....v24...|...........|...........
|...........|...........|...........|...........
|.....v20...|.....v20...|........E02|...........
|...........|...........|...........|...........
|...........|...........|...........|...........
|...........|...........|...........|...........
|F-501v28...|D-501v28...|........F02|C-506......
|...........|...........|...........|...........
|.....v24...|.....v24...|...........|...........
|...........|...........|...........|...........
|.....v20...|.....v20...|........E02|...........
|...........|...........|...........|...........
|...........|...........|...........|...........
|...........|...........|...........|...........
|A#401v32...|F-501v32...|........F02|C-503......
|...........|...........|...........|...........
|.....v28...|.....v28...|...........|...........
|...........|...........|...........|...........
|.....v25...|.....v25...|===.....E02|...........
|...........|...........|...........|...........
|...........|...........|...........|...........
|...........|...........|...........|C-503......
|D#501v28...|G-501v28...|...........|C-506......
|...........|...........|...........|...........
|.....v24...|.....v24...|...........|...........
|...........|...........|...........|...........
|.....v20...|.....v20...|...........|...........
|...........|...........|...........|...........
|...........|...........|...........|...........
|...........|...........|...........|...........
|F-501v28...|D#301v32...|...........|C-504......
|...........|...........|...........|...........
|.....v24...|...........|...........|...........
|...........|...........|...........|...........
|.....v20...|...........|...........|...........
|...........|...........|...........|...........
|...........|...........|...........|...........
|...........|...........|...........|...........
|A#401v28...|G-501v28...|G-601......|C-506......
|...........|...........|...........|...........
|.....v24...|.....v24...|...........|...........
|...........|...........|...........|...........
|.....v20...|.....v20...|...........|...........
|...........|...........|...........|...........
|...........|...........|...........|...........
|...........|...........|...........|...........
|F-501v32...|F-501v28...|F-601......|C-503......
|...........|...........|...........|...........
|.....v28...|.....v24...|...........|...........
|...........|...........|...........|...........
|.....v25...|.....v20...|...........|...........
|...........|...........|...........|...........
|...........|...........|...........|...........
|...........|...........|...........|...........
|A#401v28...|...........|D-601......|C-506......
|...........|...........|...........|...........
|.....v24...|...........|...........|...........
|...........|...........|...........|...........
|.....v20...|........F01|...........|...........
|...........|...........|...........|...........
|...........|...........|...........|...........
|...........|...........|...........|...........
|D-501v28...|........E02|===........|C-504......
|...........|...........|...........|...........
|.....v24...|...........|...........|...........
|...........|...........|...........|...........
|.....v20...|........F02|...........|...........
|...........|...........|...........|...........
|...........|...........|...........|...........
|...........|...........|...........|...........
|F-501v28...|........E02|C-601......|C-506......
|...........|...........|...........|...........
|.....v24...|...........|...........|...........
|...........|...........|...........|...........
|.....v20...|........F02|...........|...........
|...........|...........|...........|...........
|...........|...........|...........|...........
|...........|...........|...........|...........
|A#401v32...|........E02|===........|C-503......
|...........|...........|...........|...........
|.....v28...|...........|...........|...........
|...........|...........|...........|...........
|.....v25...|........F02|...........|...........
|...........|...........|...........|...........
|...........|...........|...........|...........
|...........|...........|...........|C-503......
|D-501v28...|A#201v32...|D-601......|C-506......
|...........|...........|...........|...........
|.....v24...|...........|...........|...........
|...........|...........|...........|...........
|.....v20...|...........|C-601......|...........
|...........|...........|...........|...........
|...........|...........|...........|...........
|...........|...........|...........|...........
|F-501v28...|...........|A#501......|C-504......
|...........|...........|...........|...........
|.....v24...|...........|...........|...........
|...........|...........|...........|...........
|.....v20...|...........|...........|...........
|...........|...........|...........|...........
|...........|...........|...........|...........
|...........|...........|...........|...........
|A#401v28...|...........|........F01|C-506......
|...........|...........|...........|...........
|.....v24...|...........|...........|...........
|...........|...........|...........|...........
|.....v20...|...........|........E02|...........
|...........|...........|...........|...........
|...........|...........|...........|...........
|...........|...........|...........|...........
|F-501v32...|D#301v32...|........F02|C-508......
|...........|...........|...........|C-508......
|.....v28...|...........|...........|C-508......
|...........|...........|...........|C-508......
|.....v25...|...........|........E02|C-508......
|...........|...........|...........|C-508......
|...........|...........|...........|...........
|...........|...........|...........|...........
|A#401v28...|...........|........F02|C-506......
|...........|...........|...........|...........
|.....v24...|...........|...........|...........
|...........|...........|...........|...........
|.....v20...|...........|........E02|...........
|...........|...........|...........|...........
|...........|...........|...........|...........
|...........|...........|...........|...........
|D#501v28...|...........|===........|C-504......
|...........|...........|...........|...........
|.....v24...|...........|...........|...........
|...........|...........|...........|...........
|.....v20...|...........|...........|...........
|...........|...........|...........|...........
|...........|...........|...........|...........
|...........|...........|...........|...........
|F-501v28...|G-501v24...|D-601......|C-506......
|...........|...........|...........|...........
|.....v24...|.....v20...|...........|...........
|...........|...........|...........|...........
|.....v20...|...........|...........|...........
|...........|...........|...........|...........
|...........|...........|...........|...........
|...........|...........|...........|...........
|A#401v32...|A#501v24...|G-601......|C-503......
|...........|...........|...........|...........
|.....v28...|.....v20...|...........|...........
|...........|...........|...........|...........
|.....v25...|...........|...........|...........
|...........|...........|...........|...........
|...........|...........|...........|...........
|...........|...........|...........|C-503......
|D#501v28...|C-601v24...|A-601......|C-506......
|...........|...........|...........|...........
|.....v24...|.....v20...|...........|...........
|...........|...........|...........|...........
|.....v20...|...........|...........|...........
|...........|...........|...........|...........
|...........|...........|...........|...........
|...........|...........|...........|...........
|F-501v28...|D-601v24...|A#601......|C-504......
|...........|...........|...........|...........
|.....v24...|.....v20...|...........|...........
|...........|...........|...........|...........
|.....v20...|...........|...........|...........
|...........|...........|...........|...........
|...........|...........|...........|...........
|...........|...........|...........|...........
|C-501v28...|C-601v24...|A-601......|C-506......
|...........|...........|...........|...........
|.....v24...|.....v20...|...........|...........
|...........|...........|...........|...........
|.....v20...|...........|...........|...........
|...........|...........|...........|...........
|...........|...........|...........|...........
|...........|...........|...........|...........
|A-501v32...|...........|...........|C-503......
|...........|...........|...........|...........
|.....v28...|...........|...........|...........
|...........|...........|...........|...........
|.....v25...|...........|...........|...........
|...........|...........|...........|...........
|...........|...........|...........|...........
|...........|...........|...........|...........
|C-501v28...|A#501v24...|G-601......|C-506......
|...........|...........|...........|...........
|.....v24...|.....v20...|...........|...........
|...........|...........|...........|...........
|.....v20...|...........|...........|...........
|...........|...........|...........|...........
|...........|...........|...........|...........
|...........|...........|...........|...........
|F-501v28...|...........|...........|C-504......
|...........|...........|...........|...........
|.....v24...|...........|...........|...........
|...........|...........|...........|...........
|.....v20...|...........|...........|...........
|...........|...........|...........|...........
|...........|...........|...........|...........
|...........|...........|...........|...........
|A-501v28...|A-501v20...|F-601......|C-506......
|...........|...........|...........|...........
|.....v24...|.....v16...|...........|...........
|...........|...........|...........|...........
|.....v20...|........F01|...........|...........
|...........|...........|...........|...........
|...........|...........|...........|...........
|...........|...........|...........|...........
|C-501v32...|........E02|...........|C-503......
|...........|...........|...........|...........
|.....v28...|...........|...........|...........
|...........|...........|...........|...........
|.....v25...|........F02|...........|...........
|...........|...........|...........|...........
|...........|...........|...........|...........
|...........|...........|...........|C-503......
|F-501v28...|........E02|D-601......|C-506......
|...........|...........|...........|...........
|.....v24...|...........|...........|...........
|...........|...........|...........|...........
|.....v20...|........F02|...........|...........
|...........|...........|...........|...........
|...........|...........|...........|...........
|...........|...........|...........|...........
|A-501v28...|........E02|F-601......|C-504......
|...........|...........|...........|...........
|.....v24...|...........|...........|...........
|...........|...........|...........|...........
|.....v20...|........F02|...........|...........
|...........|...........|...........|...........
|...........|...........|...........|...........
|...........|...........|...........|C-504......
|C-501v28...|F-301v32...|G-601......|C-506......
|...........|...........|...........|...........
|.....v24...|...........|...........|...........
|...........|...........|...........|...........
|.....v20...|...........|...........|C-504......
|...........|...........|...........|...........
|...........|...........|...........|...........
|...........|...........|...........|...........
|A#501v32...|G-301v32...|...........|C-503......
|...........|...........|...........|...........
|.....v28...|...........|...........|...........
|...........|...........|...........|...........
|.....v25...|...........|...........|...........
|...........|...........|...........|...........
|...........|...........|...........|...........
|...........|...........|...........|...........
|D-501v28...|...........|........E02|C-506......
|...........|...........|...........|...........
|.....v24...|...........|...........|...........
|...........|...........|...........|...........
|.....v20...|...........|........F02|...........
|...........|...........|...........|...........
|...........|...........|...........|...........
|...........|...........|...........|...........
|G-501v28...|...........|........E02|C-504......
|...........|...........|...........|...........
|.....v24...|...........|...........|...........
|...........|...........|...........|...........
|.....v20...|...........|........F02|...........
|...........|...........|...........|...........
|...........|...........|...........|...........
|...........|...........|...........|...........
|A#501v28...|...........|........E02|C-506......
|...........|...........|...........|...........
|.....v24...|...........|...........|...........
|...........|...........|...........|...........
|.....v20...|D-301v32...|........F02|...........
|...........|...........|...........|...........
|...........|...........|...........|...........
|...........|...........|...........|...........
|D-501v32...|G-301v32...|===.....E02|C-503......
|...........|...........|...........|...........
|.....v28...|...........|...........|...........
|...........|...........|...........|...........
|.....v25...|...........|...........|...........
|...........|...........|...........|...........
|...........|===........|...........|...........
|...........|...........|...........|C-503......
|G-501v28...|G-301v32...|...........|C-506......
|...........|...........|...........|...........
|.....v24...|...........|...........|...........
|...........|...........|...........|...........
|.....v20...|...........|...........|...........
|...........|...........|...........|...........
|...........|...........|...........|...........
|...........|...........|...........|...........
|A#501v28...|...........|...........|C-504......
|...........|...........|...........|...........
|.....v24...|...........|...........|...........
|...........|...........|...........|...........
|.....v20...|...........|...........|...........
|...........|...........|...........|...........
|...........|...........|...........|...........
|...........|...........|...........|...........
|D-501v28...|...........|G-601......|C-506......
|...........|...........|...........|...........
|.....v24...|...........|...........|...........
|...........|...........|...........|...........
|.....v20...|...........|...........|...........
|...........|...........|...........|...........
|...........|...........|...........|...........
|...........|...........|...........|...........
|A-501v32...|A-301v32...|F-601......|C-503......
|...........|...........|...........|...........
|.....v28...|...........|...........|...........
|...........|...........|...........|...........
|.....v25...|...........|...........|...........
|...........|...........|...........|...........
|...........|...........|...........|...........
|...........|...........|...........|...........
|C-501v28...|...........|D-601......|C-506......
|...........|...........|...........|...........
|.....v24...|...........|...........|...........
|...........|...........|...........|...........
|.....v20...|...........|...........|...........
|...........|...........|...........|...........
|...........|...........|...........|...........
|...........|...........|...........|...........
|F-501v28...|...........|===........|C-504......
|...........|...........|...........|...........
|.....v24...|...........|...........|...........
|...........|...........|...........|...........
|.....v20...|...........|...........|...........
|...........|...........|...........|...........
|...........|...........|...........|...........
|...........|...........|...........|...........
|A-501v28...|...........|C-601......|C-506......
|...........|...........|...........|...........
|.....v24...|...........|...........|...........
|...........|...........|...........|...........
|.....v20...|...........|...........|...........
|...........|...........|...........|...........
|...........|===........|...........|...........
|...........|...........|...........|...........
|C-501v32...|A-301v36...|===........|C-503......
|...........|...........|...........|...........
|.....v28...|...........|...........|...........
|...........|...........|...........|...........
|.....v25...|...........|...........|...........
|...........|...........|...........|...........
|...........|...........|...........|...........
|...........|...........|...........|C-503......
|F-501v28...|A-301v40...|D-601......|C-506......
|...........|...........|...........|...........
|.....v24...|...........|...........|...........
|...........|...........|...........|...........
|.....v20...|...........|C-601......|...........
|...........|...........|...........|...........
|...........|...........|...........|...........
|...........|...........|...........|...........
|A-501v28...|...........|A#501......|C-504......
|...........|...........|...........|...........
|.....v24...|...........|...........|...........
|...........|...........|...........|...........
|.....v20...|...........|...........|...........
|...........|...........|...........|...........
|...........|...........|...........|...........
|...........|...........|...........|...........
|C-501v28...|...........|C-601......|C-506......
|...........|...........|...........|...........
|.....v24...|...........|...........|...........
|...........|...........|...........|...........
|.....v20...|...........|...........|...........
|...........|...........|...........|...........
|...........|...........|...........|...........
|...........|...........|...........|...........
|A#601v38...|A#301v40...|D-601......|C-503......
|...........|...........|...........|...........
|.....v35...|...........|...........|...........
|...........|...........|...........|...........
|.....v32...|...........|...........|...........
|...........|...........|...........|...........
|...........|...........|...........|...........
|...........|...........|...........|...........
|===........|...........|===........|C-506......
|...........|...........|...........|...........
|...........|...........|...........|...........
|...........|...........|...........|...........
|...........|...........|...........|...........
|...........|...........|...........|...........
|...........|...........|...........|...........
|...........|...........|...........|...........
|A#601v38...|F-401v40...|D-601......|C-504......
|...........|...........|...........|...........
|.....v35...|...........|...........|...........
|...........|...........|...........|...........
|.....v32...|...........|...........|...........
|...........|...........|...........|...........
|...........|...........|...........|...........
|...........|...........|...........|...........
|A#601v38...|C-401v44...|C-601......|C-506......
|...........|...........|...........|...........
|.....v35...|...........|...........|...........
|...........|...........|...........|...........
|.....v32...|...........|...........|...........
|...........|...........|...........|...........
|...........|...........|...........|...........
|...........|...........|...........|...........
|===........|D#401v44...|===........|C-503......
|...........|...........|...........|...........
|...........|...........|...........|...........
|...........|...........|...........|...........
|...........|...........|...........|...........
|...........|...........|...........|...........
|...........|...........|...........|...........
|...........|...........|...........|C-503......
|A#601v38...|D-401v44...|A#501......|C-506......
|...........|...........|...........|...........
|.....v35...|...........|...........|...........
|...........|...........|...........|...........
|.....v32...|...........|...........|...........
|...........|...........|...........|...........
|...........|...........|...........|...........
|...........|...........|...........|...........
|A#601v38...|F#401v48...|D-601......|C-504......
|...........|...........|...........|...........
|.....v35...|...........|...........|...........
|...........|...........|...........|...........
|.....v32...|...........|...........|...........
|...........|...........|...........|...........
|...........|...........|...........|...........
|...........|...........|...........|...........
|A-601v38...|D-401v44...|........F01|C-506......
|...........|...........|...........|...........
|.....v35...|...........|...........|...........
|...........|...........|...........|...........
|.....v32...|...........|........E02|...........
|...........|...........|...........|...........
|...........|...........|...........|...........
|...........|...........|...........|...........
|........F01|F#401v40...|........F02|C-503......
|...........|...........|...........|...........
|...........|...........|...........|...........
|...........|...........|...........|...........
|........E02|...........|........E02|...........
|...........|...........|...........|...........
|...........|...........|...........|...........
|...........|...........|...........|...........
|........F02|D-401v36...|........F02|C-506......
|...........|...........|...........|...........
|...........|...........|...........|...........
|...........|...........|...........|...........
|........E02|...........|........E02|...........
|...........|...........|...........|...........
|...........|...........|...........|...........
|...........|...........|...........|...........
|........F02|F#401v32...|........F02|C-504......
|...........|...........|...........|...........
|...........|...........|...........|...........
|...........|...........|...........|...........
|........E02|...........|........E02|...........
|...........|...........|...........|...........
|...........|...........|...........|...........
|...........|...........|...........|...........
|........F02|D-401v32...|........F02|C-506......
|...........|...........|...........|...........
|...........|...........|...........|...........
|...........|...........|...........|...........
|===........|...........|===........|...........
|...........|...........|...........|...........
|...........|...........|...........|...........
|...........|...........|...........|C-507......
|D-301v40...|F#401v32...|...........|C-506......
|...........|...........|...........|...........
|...........|...........|...........|...........
|...........|...........|...........|...........
|F#301v44...|...........|...........|...........
|...........|...........|...........|...........
|...........|...........|...........|...........
|...........|...........|...........|C-503......
|A-301v48...|...........|D-6........|C-506......
|...........|...........|...........|...........
|...........|...........|...........|...........
|...........|...........|...........|...........
|F#301v44...|...........|...........|...........
|...........|...........|...........|...........
|...........|...........|...........|...........
|...........|...........|...........|C-504......
|A-301v48...|...........|F-6........|C-506......
|...........|...........|...........|...........
|...........|...........|...........|...........
|...........|...........|...........|...........
|D-401v52...|...........|...........|...........
|...........|...........|...........|...........
|...........|...........|...........|...........
|...........|...........|...........|C-503......
|F#401v52...|...........|G-6........|C-506......
|...........|...........|...........|...........
|...........|...........|...........|...........
|...........|...........|...........|...........
|A-401v56...|...........|...........|...........
|...........|...........|...........|...........
|...........|...........|...........|...........
|...........|...........|...........|...........
|F-501v48...|D#301v32...|...........|C-503......
|...........|...........|...........|...........
|.....v42...|...........|...........|...........
|...........|...........|...........|...........
|.....v38...|...........|...........|...........
|...........|...........|...........|...........
|...........|...........|...........|...........
|...........|...........|...........|...........
|A#401v42...|...........|........F01|C-506......
|...........|...........|...........|...........
|.....v36...|...........|...........|...........
|...........|...........|...........|...........
|.....v30...|...........|........E02|...........
|...........|...........|...........|...........
|...........|...........|...........|...........
|...........|...........|...........|...........
|D#501v28...|D-501v28...|........F02|C-504......
|...........|...........|...........|...........
|.....v24...|.....v24...|...........|...........
|...........|...........|...........|...........
|.....v20...|.....v20...|........E02|...........
|...........|...........|...........|...........
|...........|...........|...........|...........
|...........|...........|...........|...........
|F-501v28...|D-501v28...|........F02|C-506......
|...........|...........|...........|...........
|.....v24...|.....v24...|...........|...........
|...........|...........|...........|...........
|.....v20...|.....v20...|........E02|...........
|...........|...........|...........|...........
|...........|...........|...........|...........
|...........|...........|...........|...........
|A#401v32...|F-501v32...|........F02|C-503......
|...........|...........|...........|...........
|.....v28...|.....v28...|...........|...........
|...........|...........|...........|...........
|.....v25...|.....v25...|===.....E02|...........
|...........|...........|...........|...........
|...........|...........|...........|...........
|...........|...........|...........|C-503......
|D#501v28...|G-501v28...|...........|C-506......
|...........|...........|...........|...........
|.....v24...|.....v24...|...........|...........
|...........|...........|...........|...........
|.....v20...|.....v20...|...........|...........
|...........|...........|...........|...........
|...........|...........|...........|...........
|...........|...........|...........|...........
|F-501v28...|D#301v32...|...........|C-504......
|...........|...........|...........|...........
|.....v24...|...........|...........|...........
|...........|...........|...........|...........
|.....v20...|...........|...........|...........
|...........|...........|...........|...........
|...........|...........|...........|...........
|...........|...........|...........|...........
|A#401v28...|G-501v28...|G-601......|C-506......
|...........|...........|...........|...........
|.....v24...|.....v24...|...........|...........
|...........|...........|...........|...........
|.....v20...|.....v20...|...........|...........
|...........|...........|...........|...........
|...........|...........|...........|...........
|...........|...........|...........|...........
|A-501v32...|F-501v28...|F-601......|C-503......
|...........|...........|...........|...........
|.....v28...|.....v24...|...........|...........
|...........|...........|...........|...........
|.....v25...|.....v20...|...........|...........
|...........|...........|...........|...........
|...........|...........|...........|...........
|...........|...........|...........|...........
|C-501v28...|...........|G-601......|C-506......
|...........|...........|...........|...........
|.....v24...|...........|...........|...........
|...........|...........|...........|...........
|.....v20...|........F01|...........|...........
|...........|...........|...........|...........
|...........|...........|...........|...........
|...........|...........|...........|...........
|F-501v28...|........E02|F-601......|C-504......
|...........|...........|...........|...........
|.....v24...|...........|...........|...........
|...........|...........|...........|...........
|.....v20...|........F02|...........|...........
|...........|...........|...........|...........
|...........|...........|...........|...........
|...........|...........|...........|...........
|A-501v28...|........E02|G-601......|C-506......
|...........|...........|...........|...........
|.....v24...|...........|...........|...........
|...........|...........|...........|...........
|.....v20...|........F02|...........|...........
|...........|...........|...........|...........
|...........|...........|...........|...........
|...........|...........|...........|...........
|C-501v32...|........E02|===........|C-503......
|...........|...........|...........|...........
|.....v28...|...........|...........|...........
|...........|...........|...........|...........
|.....v25...|........F02|...........|...........
|...........|...........|...........|...........
|...........|...........|...........|...........
|...........|...........|...........|C-503......
|F-501v28...|A#201v32...|A-601......|C-506......
|...........|...........|...........|...........
|.....v24...|...........|...........|...........
|...........|...........|...........|...........
|.....v20...|...........|G-601......|...........
|...........|...........|...........|...........
|...........|...........|...........|...........
|...........|...........|...........|...........
|A-501v28...|...........|F-601......|C-504......
|...........|...........|...........|...........
|.....v24...|...........|...........|...........
|...........|...........|...........|...........
|.....v20...|...........|...........|...........
|...........|...........|...........|...........
|...........|...........|...........|...........
|...........|...........|...........|...........
|C-501v28...|...........|........F01|C-506......
|...........|...........|...........|...........
|.....v24...|...........|...........|...........
|...........|...........|...........|...........
|.....v20...|...........|........E02|...........
|...........|...........|...........|...........
|...........|...........|...........|...........
|...........|...........|...........|...........
|A#501v32...|D#301v32...|........F02|C-503......
|...........|...........|...........|...........
|.....v28...|...........|...........|...........
|...........|...........|...........|...........
|.....v25...|...........|........E02|...........
|...........|...........|...........|...........
|...........|...........|...........|...........
|...........|...........|...........|...........
|D-501v28...|...........|........F02|C-506......
|...........|...........|...........|...........
|.....v24...|...........|...........|...........
|...........|...........|...........|...........
|.....v20...|...........|........E02|...........
|...........|...........|...........|...........
|...........|...........|...........|...........
|...........|...........|...........|...........
|G-501v28...|...........|===........|C-504......
|...........|...........|...........|...........
|.....v24...|...........|...........|...........
|...........|...........|...........|...........
|.....v20...|...........|...........|...........
|...........|...........|...........|...........
|...........|...........|...........|...........
|...........|...........|...........|...........
|A#501v28...|G-501v24...|D-601......|C-506......
|...........|...........|...........|...........
|.....v24...|.....v20...|...........|...........
|...........|...........|...........|...........
|.....v20...|...........|...........|...........
|...........|...........|...........|...........
|...........|...........|...........|...........
|...........|...........|...........|...........
|D-501v32...|A#501v24...|G-601......|C-503......
|...........|...........|...........|...........
|.....v28...|.....v20...|...........|...........
|...........|...........|...........|...........
|.....v25...|...........|...........|...........
|...........|...........|...........|...........
|...........|...........|...........|...........
|...........|...........|...........|C-503......
|G-501v28...|C-601v24...|A-601......|C-506......
|...........|...........|...........|...........
|.....v24...|.....v20...|...........|...........
|...........|...........|...........|...........
|.....v20...|...........|...........|...........
|...........|...........|...........|...........
|...........|...........|...........|...........
|...........|...........|...........|...........
|A#501v28...|D-601v24...|A#601......|C-504......
|...........|...........|...........|...........
|.....v24...|.....v20...|...........|...........
|...........|...........|...........|...........
|.....v20...|...........|...........|...........
|...........|...........|...........|...........
|...........|...........|...........|...........
|...........|...........|...........|...........
|D-501v28...|C-601v24...|A-601......|C-506......
|...........|...........|...........|...........
|.....v24...|.....v20...|...........|...........
|...........|...........|...........|...........
|.....v20...|...........|...........|...........
|...........|...........|...........|...........
|...........|...........|...........|...........
|...........|...........|...........|...........
|C-601v32...|...........|...........|C-503......
|...........|...........|...........|...........
|.....v28...|...........|...........|...........
|...........|...........|...........|...........
|.....v25...|...........|...........|...........
|...........|...........|...........|...........
|...........|...........|...........|...........
|...........|...........|...........|...........
|F-501v28...|A#501v24...|G-601......|C-506......
|...........|...........|...........|...........
|.....v24...|.....v20...|...........|...........
|...........|...........|...........|...........
|.....v20...|...........|...........|...........
|...........|...........|...........|...........
|...........|...........|...........|...........
|...........|...........|...........|...........
|A-501v28...|...........|...........|C-504......
|...........|...........|...........|...........
|.....v24...|...........|...........|...........
|...........|...........|...........|...........
|.....v20...|...........|...........|...........
|...........|...........|...........|...........
|...........|...........|...........|...........
|...........|...........|...........|...........
|C-601v28...|A-501v20...|F-601......|C-506......
|...........|...........|...........|...........
|.....v24...|.....v16...|...........|...........
|...........|...........|...........|...........
|.....v20...|........F01|........F01|...........
|...........|...........|...........|...........
|...........|...........|...........|...........
|...........|...........|...........|...........
|F-501v32...|........E02|........E02|C-503......
|...........|...........|...........|...........
|.....v28...|...........|...........|...........
|...........|...........|...........|...........
|.....v25...|........F02|........F02|...........
|...........|...........|...........|...........
|...........|...........|...........|...........
|...........|...........|...........|C-503......
|A-501v28...|........E02|........E02|C-506......
|...........|...........|...........|...........
|.....v24...|...........|...........|...........
|...........|...........|...........|...........
|.....v20...|........F02|........F02|...........
|...........|...........|...........|...........
|...........|...........|...........|...........
|...........|...........|...........|...........
|C-601v28...|........E02|........E02|C-504......
|...........|...........|...........|...........
|.....v24...|...........|...........|...........
|...........|...........|...........|...........
|.....v20...|........F02|........F02|...........
|...........|...........|...........|...........
|...........|...........|...........|...........
|...........|...........|...........|C-504......
|F-501v28...|...........|===........|C-506......
|...........|...........|...........|...........
|.....v24...|...........|...........|...........
|...........|...........|...........|...........
|.....v20...|...........|...........|C-504......
|...........|...........|...........|...........
|...........|...........|...........|...........
|...........|...........|...........|...........
|G-501v32...|C-301v32...|D#601......|C-503......
|...........|...........|...........|...........
|.....v28...|...........|...........|...........
|...........|...........|...........|...........
|.....v25...|...........|...........|...........
|...........|...........|...........|...........
|...........|...........|...........|...........
|...........|...........|...........|...........
|A#401v28...|...........|A#601......|C-506......
|...........|...........|...........|...........
|.....v24...|...........|...........|...........
|...........|...........|...........|...........
|.....v20...|...........|...........|...........
|...........|...........|...........|...........
|...........|...........|...........|...........
|...........|...........|...........|...........
|D#501v28...|...........|...........|C-504......
|...........|...........|...........|...........
|.....v24...|...........|...........|...........
|...........|...........|...........|...........
|.....v20...|...........|...........|...........
|...........|...........|...........|...........
|...........|...........|===........|...........
|...........|...........|...........|...........
|G-501v28...|...........|A#601......|C-506......
|...........|...........|...........|...........
|.....v24...|...........|...........|...........
|...........|...........|...........|...........
|.....v20...|G-201v32...|...........|...........
|...........|...........|...........|...........
|...........|...........|...........|...........
|...........|...........|...........|...........
|A#401v32...|C-301v32...|...........|C-503......
|...........|...........|...........|...........
|.....v28...|...........|...........|...........
|...........|...........|...........|...........
|.....v25...|...........|...........|...........
|...........|...........|...........|...........
|...........|===........|...........|...........
|...........|...........|...........|C-503......
|D#501v28...|C-301v32...|D#601......|C-506......
|...........|...........|...........|...........
|.....v24...|...........|...........|...........
|...........|...........|...........|...........
|.....v20...|...........|...........|...........
|...........|...........|...........|...........
|...........|...........|...........|...........
|...........|...........|...........|...........
|G-501v28...|...........|...........|C-504......
|...........|...........|...........|...........
|.....v24...|...........|...........|...........
|...........|...........|...........|...........
|.....v20...|...........|...........|...........
|...........|...........|...........|...........
|...........|...........|...........|...........
|...........|...........|...........|...........
|A#401v28...|...........|F-601......|C-506......
|...........|...........|...........|...........
|.....v24...|...........|...........|...........
|...........|...........|...........|...........
|.....v20...|...........|...........|...........
|...........|...........|...........|...........
|...........|...........|...........|...........
|...........|...........|...........|...........
|F-501v28...|D-301v40...|...........|C-503......
|...........|...........|...........|...........
|.....v24...|...........|...........|...........
|...........|...........|...........|...........
|.....v20...|...........|...........|...........
|...........|...........|...........|...........
|...........|...........|...........|...........
|...........|...........|...........|...........
|D-501v28...|...........|A#601......|C-506......
|...........|...........|...........|...........
|.....v24...|...........|...........|...........
|...........|...........|...........|...........
|.....v20...|...........|...........|...........
|...........|...........|...........|...........
|...........|...........|...........|...........
|...........|...........|...........|...........
|A#401v28...|...........|...........|C-504......
|...........|...........|...........|...........
|.....v24...|...........|...........|...........
|...........|...........|...........|...........
|.....v20...|...........|...........|...........
|...........|...........|...........|...........
|...........|...........|===........|...........
|...........|...........|...........|...........
|F-501v28...|...........|A#601......|C-506......
|...........|...........|...........|...........
|.....v24...|...........|...........|...........
|...........|...........|...........|...........
|.....v20...|A-201v40...|...........|...........
|...........|...........|...........|...........
|...........|...........|...........|...........
|...........|...........|...........|...........
|D-501v28...|D-301v44...|........F01|C-503......
|...........|...........|...........|...........
|.....v24...|...........|...........|...........
|...........|...........|...........|...........
|.....v20...|...........|........E02|...........
|...........|...........|...........|...........
|...........|...........|...........|...........
|...........|...........|...........|C-503......
|A#401v28...|D-301v44...|........F02|C-506......
|...........|...........|...........|...........
|.....v24...|...........|...........|...........
|...........|...........|...........|...........
|.....v20...|...........|........E02|...........
|...........|...........|...........|...........
|...........|...........|...........|...........
|...........|...........|...........|...........
|F-501v28...|...........|........F02|C-504......
|...........|...........|...........|...........
|.....v24...|...........|...........|...........
|...........|...........|...........|...........
|.....v20...|...........|........E02|...........
|...........|...........|...........|...........
|...........|...........|...........|...........
|...........|...........|...........|...........
|D-501v28...|...........|........F02|C-506......
|...........|...........|...........|...........
|.....v24...|...........|...........|...........
|...........|...........|...........|...........
|.....v20...|...........|===........|...........
|...........|...........|...........|...........
|...........|...........|...........|...........
|...........|...........|...........|C-503......
|A#501v42...|F-401v36...|A#601......|C-506......
|...........|...........|...........|...........
|.....v36...|...........|...........|...........
|...........|...........|...........|...........
|.....v30...|...........|...........|...........
|...........|...........|...........|...........
|...........|...........|...........|...........
|...........|...........|...........|C-504......
|F-501v28...|...........|...........|C-506......
|...........|...........|...........|...........
|.....v24...|...........|...........|...........
|...........|...........|...........|...........
|.....v20...|...........|...........|...........
|...........|...........|...........|...........
|...........|...........|...........|...........
|...........|...........|...........|C-504......
|D-501v28...|F-301v32...|...........|C-506......
|...........|...........|...........|...........
|.....v24...|...........|...........|...........
|...........|...........|...........|...........
|.....v20...|...........|...........|...........
|...........|...........|...........|...........
|...........|...........|===........|...........
|...........|...........|...........|C-503......
|G-501v42...|C-401v40...|A#601......|C-506......
|...........|...........|...........|...........
|.....v36...|...........|...........|...........
|...........|...........|...........|...........
|.....v30...|...........|...........|...........
|...........|...........|...........|...........
|...........|...........|...........|...........
|...........|...........|...........|C-504......
|D#501v28...|...........|...........|C-506......
|...........|...........|...........|...........
|.....v24...|...........|...........|...........
|...........|...........|...........|...........
|.....v20...|...........|...........|...........
|...........|...........|...........|...........
|...........|...........|...........|...........
|...........|...........|...........|C-503......
|C-501v28...|...........|...........|C-506......
|...........|...........|...........|...........
|.....v24...|...........|...........|...........
|...........|...........|...........|...........
|.....v20...|...........|...........|...........
|...........|...........|...........|...........
|...........|...........|===........|...........
|...........|...........|...........|C-504......
|A-501v42...|D-401v36...|A#601......|C-506......
|...........|...........|...........|...........
|.....v36...|...........|...........|...........
|...........|...........|...........|...........
|.....v30...|...........|........E01|...........
|...........|...........|...........|...........
|...........|...........|...........|...........
|...........|...........|...........|...........
|F#501v28...|...........|A-601......|...........
|...........|...........|...........|...........
|.....v24...|...........|...........|...........
|...........|...........|...........|...........
|.....v20...|...........|...........|...........
|...........|...........|...........|...........
|...........|...........|...........|...........
|...........|...........|...........|...........
|D-501v28...|...........|...........|...........
|...........|...........|...........|...........
|.....v24...|...........|...........|...........
|...........|...........|...........|...........
|.....v20...|...........|........F01|...........
|...........|...........|...........|...........
|...........|...........|...........|...........
|...........|...........|...........|C-504......
|A-501v42...|...........|........E02|C-506......
|...........|...........|...........|...........
|.....v36...|...........|...........|...........
|...........|...........|...........|...........
|.....v30...|...........|........F02|...........
|...........|...........|...........|...........
|...........|...........|...........|...........
|...........|...........|...........|C-504......
|F#501v28...|D-501v42...|........E02|C-506......
|...........|...........|...........|...........
|.....v24...|.....v36...|...........|...........
|...........|...........|...........|...........
|.....v20...|.....v30...|........F02|...........
|...........|...........|...........|...........
|...........|...........|...........|...........
|...........|...........|...........|C-507......
|D-501v28...|D-501v42...|........E02|C-506......
|...........|...........|...........|...........
|.....v24...|.....v36...|...........|...........
|...........|...........|...........|...........
|.....v20...|.....v30...|........F02|...........
|...........|...........|...........|...........
|...........|...........|...........|...........
|...........|...........|...........|C-507......
|A-501v42...|F-501v42...|===........|C-506......
|...........|...........|...........|...........
|.....v36...|.....v36...|...........|...........
|...........|...........|...........|...........
|.....v30...|.....v30...|...........|...........
|...........|...........|...........|...........
|...........|...........|...........|...........
|...........|...........|...........|C-503......
|F#501v28...|G-501v42...|...........|C-506......
|...........|...........|...........|...........
|.....v24...|.....v36...|...........|...........
|...........|...........|...........|...........
|.....v20...|.....v30...|...........|...........
|...........|...........|...........|...........
|...........|...........|...........|...........
|...........|........E08|...........|C-504......
|D-501v28...|........E08|...........|C-506......
|...........|...........|...........|...........
|.....v24...|...........|...........|...........
|...........|...........|...........|...........
|.....v20...|...........|...........|...........
|...........|...........|...........|...........
|...........|........F08|...........|...........
|...........|........F08|...........|C-503......
|A#401v28...|G-501v42...|D-401......|C-506......
|...........|...........|...........|...........
|.....v24...|.....v36...|...........|...........
|...........|...........|...........|...........
|.....v20...|.....v30...|...........|...........
|...........|...........|...........|...........
|...........|...........|...........|...........
|...........|...........|...........|C-503......
|A#401v42...|...........|D#401......|C-506......
|...........|...........|...........|...........
|.....v36...|...........|...........|...........
|...........|...........|...........|...........
|.....v30...|...........|...........|...........
|...........|...........|...........|...........
|...........|...........|...........|...........
|...........|...........|...........|...........
|...........|...........|...........|C-504......
|...........|...........|...........|...........
|...........|...........|...........|...........
|...........|...........|...........|...........
|...........|...........|...........|...........
|...........|...........|...........|...........
|...........|...........|...........|...........
|...........|...........|...........|...........
|...........|...........|D-601......|C-504......
|...........|...........|...........|...........
|...........|...........|...........|...........
|...........|...........|...........|...........
|...........|...........|...........|...........
|...........|...........|...........|...........
|...........|...........|...........|...........
|...........|...........|...........|C-504......
|A-401v28...|F-401v63...|D-601......|C-506......
|...........|...........|...........|...........
|.....v24...|.....v54...|...........|...........
|...........|...........|...........|...........
|.....v20...|.....v45...|...........|...........
|...........|...........|...........|...........
|...........|...........|...........|...........
|...........|...........|...........|...........
|A-401v42...|F-401v63...|F-601......|...........
|...........|...........|...........|...........
|.....v36...|.....v54...|...........|...........
|...........|...........|...........|...........
|.....v30...|.....v45...|...........|...........
|...........|...........|...........|...........
|...........|...........|...........|...........
|...........|...........|...........|...........
|...........|...........|G-601......|...........
|...........|...........|...........|...........
|...........|...........|...........|...........
|...........|...........|...........|...........
|...........|...........|...........|...........
|...........|...........|...........|...........
|...........|...........|...........|...........
|...........|...........|........E08|...........
|G-401v28...|D-401v42...|........E08|C-503......
|...........|...........|...........|...........
|.....v24...|.....v36...|...........|...........
|...........|...........|...........|...........
|.....v20...|.....v30...|...........|...........
|...........|...........|...........|...........
|...........|...........|........F08|...........
|...........|...........|........F08|C-504......
|...........|...........|...........|C-506......
|...........|...........|...........|...........
|...........|...........|...........|...........
|...........|...........|...........|...........
|...........|...........|...........|C-504......
|...........|...........|...........|...........
|...........|...........|...........|...........
|...........|...........|...........|...........
|...........|...........|A#601......|C-503......
|...........|...........|...........|...........
|...........|...........|...........|...........
|...........|...........|...........|...........
|...........|...........|...........|C-507......
|...........|...........|...........|...........
|...........|...........|...........|...........
|...........|...........|...........|C-504......
|G-401v28...|D-401v42...|G-601......|C-505......
|...........|...........|...........|...........
|.....v24...|.....v36...|...........|...........
|...........|...........|...........|...........
|.....v20...|.....v30...|...........|...........
|...........|...........|...........|...........
|...........|...........|...........|...........
|...........|...........|...........|...........
|...........|...........|...........|...........
|...........|...........|...........|...........
|...........|...........|...........|...........
|...........|...........|...........|...........
|...........|...........|...........|...........
|...........|...........|...........|...........
|...........|...........|...........|...........
|...........|...........|...........|C-504......
|D-401v28...|...........|D-601......|C-505......
|...........|...........|...........|...........
|.....v24...|...........|...........|...........
|...........|...........|...........|...........
|.....v20...|...........|...........|...........
|...........|...........|...........|...........
|...........|...........|...........|...........
|...........|...........|...........|C-504......
|G-401v28...|...........|F-601......|C-505......
|...........|...........|...........|...........
|.....v24...|...........|...........|...........
|...........|...........|...........|...........
|.....v20...|...........|...........|...........
|...........|...........|...........|...........
|...........|...........|...........|...........
|...........|...........|...........|C-504......
|D-401v42...|G-301v48...|G-601......|C-505......
|...........|...........|...........|...........
|.....v36...|...........|...........|...........
|...........|...........|...........|...........
|.....v30...|...........|...........|...........
|...........|...........|...........|...........
|...........|...........|...........|...........
|...........|...........|...........|...........
|...........|...........|...........|...........
|...........|...........|...........|...........
|...........|...........|...........|...........
|...........|...........|...........|...........
|...........|...........|...........|...........
|...........|...........|...........|...........
|...........|...........|...........|...........
|...........|...........|...........|...........
|...........|...........|...........|...........
|...........|...........|...........|...........
|...........|...........|...........|...........
|...........|...........|...........|...........
|...........|...........|...........|...........
|...........|...........|...........|...........
|...........|...........|...........|...........
|...........|...........|...........|...........
|...........|...........|...........|...........
|===........|===........|===........|...........
